<?xml version="1.0"?>
<svg width="310" height="310" xmlns="http://www.w3.org/2000/svg" xmlns:svg="http://www.w3.org/2000/svg" version="1.1" xml:space="preserve">
 <g class="layer">
  <title>Layer 1</title>
  <g id="SVGRepo_bgCarrier" stroke-width="0"/>
  <g id="SVGRepo_tracerCarrier" stroke-linecap="round" stroke-linejoin="round"/>
  <g id="SVGRepo_iconCarrier">
   <g id="XMLID_834_">
    <path d="m81.7,165.11l33.98,0l0,139.89c0,2.76 2.24,5 5,5l57.62,0c2.76,0 5,-2.24 5,-5l0,-139.24l39.06,0c2.54,0 4.68,-1.9 4.97,-4.42l5.93,-51.51c0.17,-1.41 -0.28,-2.83 -1.23,-3.9c-0.95,-1.06 -2.31,-1.67 -3.73,-1.67l-45,0l0,-32.28c0,-9.73 5.24,-14.67 15.58,-14.67c1.47,0 29.42,0 29.42,0c2.76,0 5,-2.24 5,-5l0,-47.27c0,-2.77 -2.24,-5 -5,-5l-40.55,0c-0.28,-0.02 -0.92,-0.04 -1.85,-0.04c-7.04,0 -31.49,1.38 -50.81,19.15c-21.4,19.69 -18.43,43.27 -17.71,47.36l0,37.75l-35.68,0c-2.76,0 -5,2.24 -5,5l0,50.84c0,2.77 2.24,5.01 5,5.01z" fill="#64e1d9" id="XMLID_835_"/>
   </g>
  </g>
 </g>
</svg>